<?xml version="1.0" encoding="UTF-8" standalone="no"?><svg xmlns="http://www.w3.org/2000/svg" xmlns:xlink="http://www.w3.org/1999/xlink" contentScriptType="application/ecmascript" contentStyleType="text/css" height="1166px" preserveAspectRatio="none" style="width:896px;height:1166px;background:#FFFFFF;" version="1.1" viewBox="0 0 896 1166" width="896px" zoomAndPan="magnify"><defs><filter height="300%" id="f1r00o8rqv2xfs" width="300%" x="-1" y="-1"><feGaussianBlur result="blurOut" stdDeviation="2.0"/><feColorMatrix in="blurOut" result="blurOut2" type="matrix" values="0 0 0 0 0 0 0 0 0 0 0 0 0 0 0 0 0 0 .4 0"/><feOffset dx="4.0" dy="4.0" in="blurOut2" result="blurOut3"/><feBlend in="SourceGraphic" in2="blurOut3" mode="normal"/></filter></defs><g><rect fill="#FFFFFF" filter="url(#f1r00o8rqv2xfs)" height="29.1328" style="stroke:#A9A9A9;stroke-width:1.0;" width="10" x="772.5" y="693.8828"/><rect fill="#FFFFFF" filter="url(#f1r00o8rqv2xfs)" height="29.1328" style="stroke:#A9A9A9;stroke-width:1.0;" width="10" x="772.5" y="843.4141"/><rect fill="#FFFFFF" filter="url(#f1r00o8rqv2xfs)" height="174.6641" style="stroke:#000000;stroke-width:2.0;" width="385.5" x="380" y="190.0234"/><rect fill="#FFFFFF" filter="url(#f1r00o8rqv2xfs)" height="101.3984" style="stroke:#000000;stroke-width:2.0;" width="323.5" x="390" y="256.2891"/><rect fill="#FFFFFF" filter="url(#f1r00o8rqv2xfs)" height="174.6641" style="stroke:#000000;stroke-width:2.0;" width="327.5" x="380" y="398.6875"/><rect fill="#FFFFFF" filter="url(#f1r00o8rqv2xfs)" height="101.3984" style="stroke:#000000;stroke-width:2.0;" width="272.5" x="390" y="422.8203"/><rect fill="#FFFFFF" filter="url(#f1r00o8rqv2xfs)" height="280.1953" style="stroke:#000000;stroke-width:2.0;" width="512" x="370" y="607.3516"/><rect fill="#FFFFFF" filter="url(#f1r00o8rqv2xfs)" height="249.0625" style="stroke:#000000;stroke-width:2.0;" width="492" x="380" y="631.4844"/><rect fill="#FFFFFF" filter="url(#f1r00o8rqv2xfs)" height="117.5313" style="stroke:#000000;stroke-width:2.0;" width="472" x="390" y="655.6172"/><rect fill="#FFFFFF" filter="url(#f1r00o8rqv2xfs)" height="113.3984" style="stroke:#000000;stroke-width:2.0;" width="481" x="197.5" y="921.5469"/><line style="stroke:#A9A9A9;stroke-width:1.0;stroke-dasharray:5.0,5.0;" x1="100" x2="100" y1="40.2969" y2="1123.2109"/><line style="stroke:#A9A9A9;stroke-width:1.0;stroke-dasharray:5.0,5.0;" x1="250.5" x2="250.5" y1="82.9453" y2="1123.2109"/><line style="stroke:#A9A9A9;stroke-width:1.0;stroke-dasharray:5.0,5.0;" x1="469" x2="469" y1="170.375" y2="1123.2109"/><line style="stroke:#A9A9A9;stroke-width:1.0;stroke-dasharray:5.0,5.0;" x1="777" x2="777" y1="40.2969" y2="1123.2109"/><rect fill="#85BBF0" filter="url(#f1r00o8rqv2xfs)" height="30.2969" style="stroke:#85BBF0;stroke-width:1.5;" width="187" x="5" y="5"/><text fill="#000000" font-family="sans-serif" font-size="14" lengthAdjust="spacing" textLength="173" x="12" y="24.9951">Source Code Repository</text><rect fill="#85BBF0" filter="url(#f1r00o8rqv2xfs)" height="30.2969" style="stroke:#85BBF0;stroke-width:1.5;" width="187" x="5" y="1122.2109"/><text fill="#000000" font-family="sans-serif" font-size="14" lengthAdjust="spacing" textLength="173" x="12" y="1142.2061">Source Code Repository</text><rect fill="#85BBF0" filter="url(#f1r00o8rqv2xfs)" height="30.2969" style="stroke:#85BBF0;stroke-width:1.5;" width="83" x="207.5" y="1122.2109"/><text fill="#000000" font-family="sans-serif" font-size="14" lengthAdjust="spacing" textLength="69" x="214.5" y="1142.2061">CI Runner</text><rect fill="#85BBF0" filter="url(#f1r00o8rqv2xfs)" height="30.2969" style="stroke:#85BBF0;stroke-width:1.5;" width="135" x="400" y="1122.2109"/><text fill="#000000" font-family="sans-serif" font-size="14" lengthAdjust="spacing" textLength="121" x="407" y="1142.2061">Workflow Engine</text><rect fill="#85BBF0" filter="url(#f1r00o8rqv2xfs)" height="30.2969" style="stroke:#85BBF0;stroke-width:1.5;" width="145" x="703" y="5"/><text fill="#000000" font-family="sans-serif" font-size="14" lengthAdjust="spacing" textLength="131" x="710" y="24.9951">Target Repository</text><rect fill="#85BBF0" filter="url(#f1r00o8rqv2xfs)" height="30.2969" style="stroke:#85BBF0;stroke-width:1.5;" width="145" x="703" y="1122.2109"/><text fill="#000000" font-family="sans-serif" font-size="14" lengthAdjust="spacing" textLength="131" x="710" y="1142.2061">Target Repository</text><rect fill="#FFFFFF" filter="url(#f1r00o8rqv2xfs)" height="29.1328" style="stroke:#A9A9A9;stroke-width:1.0;" width="10" x="772.5" y="693.8828"/><rect fill="#FFFFFF" filter="url(#f1r00o8rqv2xfs)" height="29.1328" style="stroke:#A9A9A9;stroke-width:1.0;" width="10" x="772.5" y="843.4141"/><polygon fill="#A9A9A9" points="195.5,67.4297,205.5,71.4297,195.5,75.4297,199.5,71.4297" style="stroke:#A9A9A9;stroke-width:1.0;"/><line style="stroke:#A9A9A9;stroke-width:1.0;" x1="100.5" x2="201.5" y1="71.4297" y2="71.4297"/><text fill="#000000" font-family="sans-serif" font-size="13" font-weight="bold" lengthAdjust="spacing" textLength="9" x="107.5" y="66.3638">1</text><text fill="#000000" font-family="sans-serif" font-size="13" lengthAdjust="spacing" textLength="70" x="120.5" y="66.3638">Trigger run</text><rect fill="#85BBF0" filter="url(#f1r00o8rqv2xfs)" height="30.2969" style="stroke:#85BBF0;stroke-width:1.5;" width="83" x="207.5" y="50.2969"/><text fill="#000000" font-family="sans-serif" font-size="14" lengthAdjust="spacing" textLength="69" x="214.5" y="70.292">CI Runner</text><line style="stroke:#A9A9A9;stroke-width:1.0;" x1="251" x2="293" y1="116.7266" y2="116.7266"/><line style="stroke:#A9A9A9;stroke-width:1.0;" x1="293" x2="293" y1="116.7266" y2="129.7266"/><line style="stroke:#A9A9A9;stroke-width:1.0;" x1="252" x2="293" y1="129.7266" y2="129.7266"/><polygon fill="#A9A9A9" points="262,125.7266,252,129.7266,262,133.7266,258,129.7266" style="stroke:#A9A9A9;stroke-width:1.0;"/><text fill="#000000" font-family="sans-serif" font-size="13" font-weight="bold" lengthAdjust="spacing" textLength="9" x="258" y="111.6606">2</text><text fill="#000000" font-family="sans-serif" font-size="13" lengthAdjust="spacing" textLength="50" x="271" y="111.6606">Prepare</text><polygon fill="#A9A9A9" points="388,154.8594,398,158.8594,388,162.8594,392,158.8594" style="stroke:#A9A9A9;stroke-width:1.0;"/><line style="stroke:#A9A9A9;stroke-width:1.0;" x1="251" x2="394" y1="158.8594" y2="158.8594"/><text fill="#000000" font-family="sans-serif" font-size="13" font-weight="bold" lengthAdjust="spacing" textLength="8" x="258" y="153.7935">3</text><text fill="#000000" font-family="sans-serif" font-size="13" lengthAdjust="spacing" textLength="113" x="270" y="153.7935">Run HERMES step</text><rect fill="#85BBF0" filter="url(#f1r00o8rqv2xfs)" height="30.2969" style="stroke:#85BBF0;stroke-width:1.5;" width="135" x="400" y="137.7266"/><text fill="#000000" font-family="sans-serif" font-size="14" lengthAdjust="spacing" textLength="121" x="407" y="157.7217">Workflow Engine</text><path d="M380,190.0234 L586,190.0234 L586,197.0234 L576,207.0234 L380,207.0234 L380,190.0234 " fill="#EEEEEE" style="stroke:#000000;stroke-width:1.0;"/><rect fill="none" height="174.6641" style="stroke:#000000;stroke-width:2.0;" width="385.5" x="380" y="190.0234"/><text fill="#000000" font-family="sans-serif" font-size="13" font-weight="bold" lengthAdjust="spacing" textLength="161" x="395" y="203.0903">Metadata Harvesting</text><line style="stroke:#A9A9A9;stroke-width:1.0;" x1="469.5" x2="511.5" y1="228.2891" y2="228.2891"/><line style="stroke:#A9A9A9;stroke-width:1.0;" x1="511.5" x2="511.5" y1="228.2891" y2="241.2891"/><line style="stroke:#A9A9A9;stroke-width:1.0;" x1="470.5" x2="511.5" y1="241.2891" y2="241.2891"/><polygon fill="#A9A9A9" points="480.5,237.2891,470.5,241.2891,480.5,245.2891,476.5,241.2891" style="stroke:#A9A9A9;stroke-width:1.0;"/><text fill="#000000" font-family="sans-serif" font-size="13" font-weight="bold" lengthAdjust="spacing" textLength="9" x="476.5" y="223.2231">4</text><text fill="#000000" font-family="sans-serif" font-size="13" lengthAdjust="spacing" textLength="264" x="489.5" y="223.2231">Discover, order, weight available sources</text><path d="M390,256.2891 L468,256.2891 L468,263.2891 L458,273.2891 L390,273.2891 L390,256.2891 " fill="#EEEEEE" style="stroke:#000000;stroke-width:1.0;"/><rect fill="none" height="101.3984" style="stroke:#000000;stroke-width:2.0;" width="323.5" x="390" y="256.2891"/><text fill="#000000" font-family="sans-serif" font-size="13" font-weight="bold" lengthAdjust="spacing" textLength="33" x="405" y="269.356">loop</text><text fill="#000000" font-family="sans-serif" font-size="11" font-weight="bold" lengthAdjust="spacing" textLength="89" x="483" y="268.4995">[Each source]</text><line style="stroke:#A9A9A9;stroke-width:1.0;" x1="469.5" x2="511.5" y1="294.5547" y2="294.5547"/><line style="stroke:#A9A9A9;stroke-width:1.0;" x1="511.5" x2="511.5" y1="294.5547" y2="307.5547"/><line style="stroke:#A9A9A9;stroke-width:1.0;" x1="470.5" x2="511.5" y1="307.5547" y2="307.5547"/><polygon fill="#A9A9A9" points="480.5,303.5547,470.5,307.5547,480.5,311.5547,476.5,307.5547" style="stroke:#A9A9A9;stroke-width:1.0;"/><text fill="#000000" font-family="sans-serif" font-size="13" font-weight="bold" lengthAdjust="spacing" textLength="9" x="476.5" y="289.4888">5</text><text fill="#000000" font-family="sans-serif" font-size="13" lengthAdjust="spacing" textLength="117" x="489.5" y="289.4888">Fetch and analyse</text><line style="stroke:#A9A9A9;stroke-width:1.0;" x1="469.5" x2="511.5" y1="336.6875" y2="336.6875"/><line style="stroke:#A9A9A9;stroke-width:1.0;" x1="511.5" x2="511.5" y1="336.6875" y2="349.6875"/><line style="stroke:#A9A9A9;stroke-width:1.0;" x1="470.5" x2="511.5" y1="349.6875" y2="349.6875"/><polygon fill="#A9A9A9" points="480.5,345.6875,470.5,349.6875,480.5,353.6875,476.5,349.6875" style="stroke:#A9A9A9;stroke-width:1.0;"/><text fill="#000000" font-family="sans-serif" font-size="13" font-weight="bold" lengthAdjust="spacing" textLength="9" x="476.5" y="331.6216">6</text><text fill="#000000" font-family="sans-serif" font-size="13" lengthAdjust="spacing" textLength="212" x="489.5" y="331.6216">Save as structured metadata set</text><path d="M380,398.6875 L586,398.6875 L586,405.6875 L576,415.6875 L380,415.6875 L380,398.6875 " fill="#EEEEEE" style="stroke:#000000;stroke-width:1.0;"/><rect fill="none" height="174.6641" style="stroke:#000000;stroke-width:2.0;" width="327.5" x="380" y="398.6875"/><text fill="#000000" font-family="sans-serif" font-size="13" font-weight="bold" lengthAdjust="spacing" textLength="161" x="395" y="411.7544">Metadata Processing</text><path d="M390,422.8203 L468,422.8203 L468,429.8203 L458,439.8203 L390,439.8203 L390,422.8203 " fill="#EEEEEE" style="stroke:#000000;stroke-width:1.0;"/><rect fill="none" height="101.3984" style="stroke:#000000;stroke-width:2.0;" width="272.5" x="390" y="422.8203"/><text fill="#000000" font-family="sans-serif" font-size="13" font-weight="bold" lengthAdjust="spacing" textLength="33" x="405" y="435.8872">loop</text><text fill="#000000" font-family="sans-serif" font-size="11" font-weight="bold" lengthAdjust="spacing" textLength="136" x="483" y="435.0308">[Each metadata set]</text><line style="stroke:#A9A9A9;stroke-width:1.0;" x1="469.5" x2="511.5" y1="461.0859" y2="461.0859"/><line style="stroke:#A9A9A9;stroke-width:1.0;" x1="511.5" x2="511.5" y1="461.0859" y2="474.0859"/><line style="stroke:#A9A9A9;stroke-width:1.0;" x1="470.5" x2="511.5" y1="474.0859" y2="474.0859"/><polygon fill="#A9A9A9" points="480.5,470.0859,470.5,474.0859,480.5,478.0859,476.5,474.0859" style="stroke:#A9A9A9;stroke-width:1.0;"/><text fill="#000000" font-family="sans-serif" font-size="13" font-weight="bold" lengthAdjust="spacing" textLength="9" x="476.5" y="456.02">7</text><text fill="#000000" font-family="sans-serif" font-size="13" lengthAdjust="spacing" textLength="52" x="489.5" y="456.02">Validate</text><line style="stroke:#A9A9A9;stroke-width:1.0;" x1="469.5" x2="511.5" y1="503.2188" y2="503.2188"/><line style="stroke:#A9A9A9;stroke-width:1.0;" x1="511.5" x2="511.5" y1="503.2188" y2="516.2188"/><line style="stroke:#A9A9A9;stroke-width:1.0;" x1="470.5" x2="511.5" y1="516.2188" y2="516.2188"/><polygon fill="#A9A9A9" points="480.5,512.2188,470.5,516.2188,480.5,520.2188,476.5,516.2188" style="stroke:#A9A9A9;stroke-width:1.0;"/><text fill="#000000" font-family="sans-serif" font-size="13" font-weight="bold" lengthAdjust="spacing" textLength="9" x="476.5" y="498.1528">8</text><text fill="#000000" font-family="sans-serif" font-size="13" lengthAdjust="spacing" textLength="161" x="489.5" y="498.1528">Check for conflicting sets</text><line style="stroke:#A9A9A9;stroke-width:1.0;" x1="469.5" x2="511.5" y1="552.3516" y2="552.3516"/><line style="stroke:#A9A9A9;stroke-width:1.0;" x1="511.5" x2="511.5" y1="552.3516" y2="565.3516"/><line style="stroke:#A9A9A9;stroke-width:1.0;" x1="470.5" x2="511.5" y1="565.3516" y2="565.3516"/><polygon fill="#A9A9A9" points="480.5,561.3516,470.5,565.3516,480.5,569.3516,476.5,565.3516" style="stroke:#A9A9A9;stroke-width:1.0;"/><text fill="#000000" font-family="sans-serif" font-size="13" font-weight="bold" lengthAdjust="spacing" textLength="9" x="476.5" y="547.2856">9</text><text fill="#000000" font-family="sans-serif" font-size="13" lengthAdjust="spacing" textLength="206" x="489.5" y="547.2856">Merge sources into coherent set</text><path d="M370,607.3516 L497,607.3516 L497,614.3516 L487,624.3516 L370,624.3516 L370,607.3516 " fill="#EEEEEE" style="stroke:#000000;stroke-width:1.0;"/><rect fill="none" height="280.1953" style="stroke:#000000;stroke-width:2.0;" width="512" x="370" y="607.3516"/><text fill="#000000" font-family="sans-serif" font-size="13" font-weight="bold" lengthAdjust="spacing" textLength="82" x="385" y="620.4185">Deposition</text><path d="M380,631.4844 L458,631.4844 L458,638.4844 L448,648.4844 L380,648.4844 L380,631.4844 " fill="#EEEEEE" style="stroke:#000000;stroke-width:1.0;"/><rect fill="none" height="249.0625" style="stroke:#000000;stroke-width:2.0;" width="492" x="380" y="631.4844"/><text fill="#000000" font-family="sans-serif" font-size="13" font-weight="bold" lengthAdjust="spacing" textLength="33" x="395" y="644.5513">loop</text><text fill="#000000" font-family="sans-serif" font-size="11" font-weight="bold" lengthAdjust="spacing" textLength="163" x="473" y="643.6948">[Each target repository]</text><path d="M390,655.6172 L462,655.6172 L462,662.6172 L452,672.6172 L390,672.6172 L390,655.6172 " fill="#EEEEEE" style="stroke:#000000;stroke-width:1.0;"/><rect fill="none" height="117.5313" style="stroke:#000000;stroke-width:2.0;" width="472" x="390" y="655.6172"/><text fill="#000000" font-family="sans-serif" font-size="13" font-weight="bold" lengthAdjust="spacing" textLength="27" x="405" y="668.6841">opt</text><text fill="#000000" font-family="sans-serif" font-size="11" font-weight="bold" lengthAdjust="spacing" textLength="145" x="477" y="667.8276">[Match requirements]</text><polygon fill="#A9A9A9" points="760.5,689.8828,770.5,693.8828,760.5,697.8828,764.5,693.8828" style="stroke:#A9A9A9;stroke-width:1.0;"/><line style="stroke:#A9A9A9;stroke-width:1.0;" x1="469.5" x2="766.5" y1="693.8828" y2="693.8828"/><text fill="#000000" font-family="sans-serif" font-size="13" font-weight="bold" lengthAdjust="spacing" textLength="19" x="476.5" y="688.8169">10</text><text fill="#000000" font-family="sans-serif" font-size="13" lengthAdjust="spacing" textLength="261" x="499.5" y="688.8169">Elict metadata requirements from target</text><polygon fill="#A9A9A9" points="480.5,719.0156,470.5,723.0156,480.5,727.0156,476.5,723.0156" style="stroke:#A9A9A9;stroke-width:1.0;"/><line style="stroke:#A9A9A9;stroke-width:1.0;stroke-dasharray:2.0,2.0;" x1="474.5" x2="776.5" y1="723.0156" y2="723.0156"/><text fill="#000000" font-family="sans-serif" font-size="13" font-weight="bold" lengthAdjust="spacing" textLength="18" x="486.5" y="717.9497">11</text><text fill="#000000" font-family="sans-serif" font-size="13" lengthAdjust="spacing" textLength="133" x="508.5" y="717.9497">Return requirements</text><line style="stroke:#A9A9A9;stroke-width:1.0;" x1="469.5" x2="511.5" y1="752.1484" y2="752.1484"/><line style="stroke:#A9A9A9;stroke-width:1.0;" x1="511.5" x2="511.5" y1="752.1484" y2="765.1484"/><line style="stroke:#A9A9A9;stroke-width:1.0;" x1="470.5" x2="511.5" y1="765.1484" y2="765.1484"/><polygon fill="#A9A9A9" points="480.5,761.1484,470.5,765.1484,480.5,769.1484,476.5,765.1484" style="stroke:#A9A9A9;stroke-width:1.0;"/><text fill="#000000" font-family="sans-serif" font-size="13" font-weight="bold" lengthAdjust="spacing" textLength="18" x="476.5" y="747.0825">12</text><text fill="#000000" font-family="sans-serif" font-size="13" lengthAdjust="spacing" textLength="182" x="498.5" y="747.0825">Ensure merged set matches</text><line style="stroke:#A9A9A9;stroke-width:1.0;" x1="469.5" x2="511.5" y1="801.2813" y2="801.2813"/><line style="stroke:#A9A9A9;stroke-width:1.0;" x1="511.5" x2="511.5" y1="801.2813" y2="814.2813"/><line style="stroke:#A9A9A9;stroke-width:1.0;" x1="470.5" x2="511.5" y1="814.2813" y2="814.2813"/><polygon fill="#A9A9A9" points="480.5,810.2813,470.5,814.2813,480.5,818.2813,476.5,814.2813" style="stroke:#A9A9A9;stroke-width:1.0;"/><text fill="#000000" font-family="sans-serif" font-size="13" font-weight="bold" lengthAdjust="spacing" textLength="17" x="476.5" y="796.2153">13</text><text fill="#000000" font-family="sans-serif" font-size="13" lengthAdjust="spacing" textLength="54" x="497.5" y="796.2153">Package</text><polygon fill="#A9A9A9" points="760.5,839.4141,770.5,843.4141,760.5,847.4141,764.5,843.4141" style="stroke:#A9A9A9;stroke-width:1.0;"/><line style="stroke:#A9A9A9;stroke-width:1.0;" x1="469.5" x2="766.5" y1="843.4141" y2="843.4141"/><text fill="#000000" font-family="sans-serif" font-size="13" font-weight="bold" lengthAdjust="spacing" textLength="18" x="476.5" y="838.3481">14</text><text fill="#000000" font-family="sans-serif" font-size="13" lengthAdjust="spacing" textLength="49" x="498.5" y="838.3481">Deposit</text><polygon fill="#A9A9A9" points="480.5,868.5469,470.5,872.5469,480.5,876.5469,476.5,872.5469" style="stroke:#A9A9A9;stroke-width:1.0;"/><line style="stroke:#A9A9A9;stroke-width:1.0;" x1="474.5" x2="776.5" y1="872.5469" y2="872.5469"/><text fill="#000000" font-family="sans-serif" font-size="13" font-weight="bold" lengthAdjust="spacing" textLength="18" x="486.5" y="867.481">15</text><text fill="#000000" font-family="sans-serif" font-size="13" lengthAdjust="spacing" textLength="140" x="508.5" y="867.481">Return status and PID</text><path d="M197.5,921.5469 L365.5,921.5469 L365.5,928.5469 L355.5,938.5469 L197.5,938.5469 L197.5,921.5469 " fill="#EEEEEE" style="stroke:#000000;stroke-width:1.0;"/><rect fill="none" height="113.3984" style="stroke:#000000;stroke-width:2.0;" width="481" x="197.5" y="921.5469"/><text fill="#000000" font-family="sans-serif" font-size="13" font-weight="bold" lengthAdjust="spacing" textLength="123" x="212.5" y="934.6138">Post Processing</text><line style="stroke:#A9A9A9;stroke-width:1.0;" x1="469.5" x2="511.5" y1="959.8125" y2="959.8125"/><line style="stroke:#A9A9A9;stroke-width:1.0;" x1="511.5" x2="511.5" y1="959.8125" y2="972.8125"/><line style="stroke:#A9A9A9;stroke-width:1.0;" x1="470.5" x2="511.5" y1="972.8125" y2="972.8125"/><polygon fill="#A9A9A9" points="480.5,968.8125,470.5,972.8125,480.5,976.8125,476.5,972.8125" style="stroke:#A9A9A9;stroke-width:1.0;"/><text fill="#000000" font-family="sans-serif" font-size="13" font-weight="bold" lengthAdjust="spacing" textLength="18" x="476.5" y="954.7466">16</text><text fill="#000000" font-family="sans-serif" font-size="13" lengthAdjust="spacing" textLength="168" x="498.5" y="954.7466">Run post processing tasks</text><polygon fill="#A9A9A9" points="262,997.9453,252,1001.9453,262,1005.9453,258,1001.9453" style="stroke:#A9A9A9;stroke-width:1.0;"/><line style="stroke:#A9A9A9;stroke-width:1.0;stroke-dasharray:2.0,2.0;" x1="256" x2="468.5" y1="1001.9453" y2="1001.9453"/><text fill="#000000" font-family="sans-serif" font-size="13" font-weight="bold" lengthAdjust="spacing" textLength="18" x="268" y="996.8794">17</text><text fill="#000000" font-family="sans-serif" font-size="13" lengthAdjust="spacing" textLength="85" x="290" y="996.8794">Send outputs</text><polygon fill="#A9A9A9" points="457.5,1059.0781,467.5,1063.0781,457.5,1067.0781,461.5,1063.0781" style="stroke:#A9A9A9;stroke-width:1.0;"/><line style="stroke:#A9A9A9;stroke-width:1.0;" x1="251" x2="463.5" y1="1063.0781" y2="1063.0781"/><text fill="#000000" font-family="sans-serif" font-size="13" font-weight="bold" lengthAdjust="spacing" textLength="18" x="258" y="1058.0122">18</text><text fill="#000000" font-family="sans-serif" font-size="13" lengthAdjust="spacing" textLength="64" x="280" y="1058.0122">Teardown</text><line style="stroke:#A9A9A9;stroke-width:2.0;" x1="460.5" x2="478.5" y1="1054.0781" y2="1072.0781"/><line style="stroke:#A9A9A9;stroke-width:2.0;" x1="460.5" x2="478.5" y1="1072.0781" y2="1054.0781"/><line style="stroke:#A9A9A9;stroke-width:1.0;" x1="251" x2="293" y1="1092.2109" y2="1092.2109"/><line style="stroke:#A9A9A9;stroke-width:1.0;" x1="293" x2="293" y1="1092.2109" y2="1105.2109"/><line style="stroke:#A9A9A9;stroke-width:1.0;" x1="252" x2="293" y1="1105.2109" y2="1105.2109"/><polygon fill="#A9A9A9" points="262,1101.2109,252,1105.2109,262,1109.2109,258,1105.2109" style="stroke:#A9A9A9;stroke-width:1.0;"/><text fill="#000000" font-family="sans-serif" font-size="13" font-weight="bold" lengthAdjust="spacing" textLength="18" x="258" y="1087.145">19</text><text fill="#000000" font-family="sans-serif" font-size="13" lengthAdjust="spacing" textLength="28" x="280" y="1087.145">Post</text><line style="stroke:#A9A9A9;stroke-width:2.0;" x1="242" x2="260" y1="1096.2109" y2="1114.2109"/><line style="stroke:#A9A9A9;stroke-width:2.0;" x1="242" x2="260" y1="1114.2109" y2="1096.2109"/><!--MD5=[8fdf1bc14a6c0d905d7bdd239ee9e101]
@startuml
autonumber

skinparam sequence {
  ArrowColor darkgrey
  LifeLineBorderColor darkgrey

  ParticipantBorderColor #85bbf0
  ParticipantBackgroundColor #85bbf0
}

participant "Source Code Repository" as VCS
participant "CI Runner" as CI
participant "Workflow Engine" as WE
participant "Target Repository" as T

create CI
VCS -> CI: Trigger run
CI -> CI: Prepare

create WE
CI -> WE: Run HERMES step

group Metadata Harvesting
  WE -> WE: Discover, order, weight available sources
  loop Each source
    WE -> WE: Fetch and analyse
    WE -> WE: Save as structured metadata set
  end
end

||20||
group Metadata Processing
  loop Each metadata set
    WE -> WE: Validate
    WE -> WE: Check for conflicting sets
  end
  WE -> WE: Merge sources into coherent set
end

||20||
group Deposition
  loop Each target repository
    opt Match requirements
      WE -> T: Elict metadata requirements from target
      activate T
      T - -> WE: Return requirements
      deactivate T
      WE -> WE: Ensure merged set matches
    end
    WE -> WE: Package
    WE -> T: Deposit
    activate T
    T -> WE: Return status and PID
    deactivate T
  end
end

||20||
group Post Processing
  WE -> WE: Run post processing tasks
  WE - -> CI: Send outputs
  |||
end

CI -> WE: Teardown
destroy WE
CI -> CI: Post
destroy CI
@enduml

PlantUML version 1.2022.1beta1(Unknown compile time)
(GPL source distribution)
Java Runtime: Java(TM) SE Runtime Environment
JVM: Java HotSpot(TM) 64-Bit Server VM
Default Encoding: UTF-8
Language: en
Country: US
--></g></svg>